G04 DipTrace 2.3.1.0*
%INBottomSilk.gbr*%
%MOIN*%
%ADD10C,0.0098*%
%ADD12C,0.003*%
%FSLAX44Y44*%
G04*
G70*
G90*
G75*
G01*
%LNBotSilk*%
%LPD*%
X5043Y5772D2*
D10*
X4668D1*
Y6397D1*
X5043D1*
Y5772D1*
X4480D2*
X4105D1*
Y6397D1*
X4480D1*
Y5772D1*
X5043Y4397D2*
X4668D1*
Y5022D1*
X5043D1*
Y4397D1*
X4480D2*
X4105D1*
Y5022D1*
X4480D1*
Y4397D1*
X4618Y5592D2*
D12*
X4771D1*
X4800Y5601D1*
X4809Y5611D1*
X4819Y5630D1*
Y5649D1*
X4809Y5668D1*
X4800Y5678D1*
X4771Y5687D1*
X4752D1*
X4656Y5530D2*
X4647Y5511D1*
X4618Y5482D1*
X4819D1*
X4118Y5572D2*
X4271D1*
X4300Y5582D1*
X4309Y5591D1*
X4319Y5610D1*
Y5630D1*
X4309Y5649D1*
X4300Y5658D1*
X4271Y5668D1*
X4252D1*
X4166Y5501D2*
X4156D1*
X4137Y5491D1*
X4128Y5482D1*
X4118Y5462D1*
Y5424D1*
X4128Y5405D1*
X4137Y5396D1*
X4156Y5386D1*
X4175D1*
X4195Y5396D1*
X4223Y5415D1*
X4319Y5510D1*
Y5376D1*
X4680Y4197D2*
X4833D1*
X4862Y4207D1*
X4872Y4216D1*
X4881Y4235D1*
Y4255D1*
X4872Y4274D1*
X4862Y4283D1*
X4833Y4293D1*
X4814D1*
X4681Y4116D2*
Y4011D1*
X4757Y4068D1*
Y4040D1*
X4767Y4021D1*
X4776Y4011D1*
X4805Y4001D1*
X4824D1*
X4853Y4011D1*
X4872Y4030D1*
X4881Y4059D1*
Y4088D1*
X4872Y4116D1*
X4862Y4126D1*
X4843Y4135D1*
X4118Y4202D2*
X4271D1*
X4300Y4211D1*
X4309Y4221D1*
X4319Y4240D1*
Y4259D1*
X4309Y4278D1*
X4300Y4288D1*
X4271Y4298D1*
X4252D1*
X4319Y4044D2*
X4118D1*
X4252Y4140D1*
Y3997D1*
M02*
