M48
INCH
T01C0.015
T02C0.035
%
T01
X+008856Y+005772
X+008856Y+005147
X+008293Y+004772
X+008106Y+004210
X+007543Y+004209
X+007106Y+004209
X+006668Y+004209
X+006231Y+004209
X+005793Y+004209
X+005355Y+004209
X+005062Y+004937
X+004812Y+005312
X+004499Y+004937
X+005249Y+005562
X+005687Y+006312
X+005187Y+006437
X+004312Y+006437
X+006812Y+005187
X+007124Y+005500
X+007437Y+005187
X+008344Y+006522
X+008731Y+008728
X+007249Y+010687
X+006249Y+010375
X+007249Y+011875
X+006187Y+012500
X+009374Y+004187
X+009999Y+004187
T02
X+004312Y+011875
X+004312Y+011250
X+004312Y+010625
X+004312Y+010000
X+005937Y+007875
X+006312Y+007437
X+008999Y+011000
X+009562Y+010625
T00
M30
