G04 DipTrace 2.3.1.0*
%INTop.gbr*%
%MOIN*%
%ADD13C,0.006*%
%ADD14C,0.013*%
%ADD15C,0.03*%
%ADD16C,0.016*%
%ADD17C,0.024*%
%ADD18C,0.012*%
%ADD19C,0.025*%
%ADD23R,0.063X0.1063*%
%ADD24R,0.0394X0.0433*%
%ADD25R,0.0354X0.0276*%
%ADD26R,0.0512X0.0591*%
%ADD27R,0.0276X0.0354*%
%ADD29R,0.0827X0.0551*%
%ADD31R,0.063X0.2244*%
%ADD32R,0.0098X0.0236*%
%ADD33R,0.0236X0.0098*%
%ADD34R,0.1043X0.065*%
%ADD35C,0.035*%
%ADD37C,0.052*%
%FSLAX44Y44*%
G04*
G70*
G90*
G75*
G01*
%LNTop*%
%LPD*%
X5480Y10397D2*
D13*
X5624D1*
D14*
Y11004D1*
D13*
X5605Y11022D1*
Y11772D2*
D14*
Y11397D1*
Y11022D1*
X5230Y8272D2*
D15*
Y9706D1*
D13*
X5187Y9750D1*
X4687Y8249D2*
D15*
X5208D1*
D13*
X5230Y8272D1*
D15*
Y6956D1*
D13*
X5249Y6937D1*
X5480Y10397D2*
D15*
X4897D1*
D13*
X4874Y10375D1*
X5480Y10397D2*
D15*
Y9894D1*
D13*
X5499Y9875D1*
X6365Y5051D2*
X6238D1*
X6187Y5000D1*
Y4812D1*
X5874Y4500D1*
X5646D1*
X5355Y4209D1*
X6621Y4795D2*
X6379D1*
X5793Y4209D1*
X6818Y4795D2*
Y4693D1*
X6624Y4499D1*
X6520D1*
X6231Y4209D1*
X7015Y4795D2*
Y4556D1*
X6668Y4209D1*
X7212Y4795D2*
Y4316D1*
X7106Y4209D1*
X7409Y4795D2*
Y4465D1*
X7543Y4330D1*
Y4209D1*
X7861Y5248D2*
X8394D1*
X8418Y5272D1*
Y5585D1*
X8543Y5710D1*
X8793D1*
X8855Y5772D1*
X8793D1*
Y5710D1*
X8855Y6772D2*
Y6284D1*
X7861Y5051D2*
X8014D1*
X8293Y4772D1*
X5687Y5387D2*
Y5445D1*
X6365D1*
X5249Y5562D2*
Y5500D1*
X5363Y5387D1*
X5687D1*
X7875Y5655D2*
X7861Y5641D1*
D16*
Y5874D1*
D17*
Y6700D1*
X7081Y7481D1*
D13*
Y8272D1*
D15*
Y9543D1*
D13*
X7062Y9562D1*
X7081Y8272D2*
D15*
X7664D1*
D13*
X7687Y8250D1*
X9293Y7665D2*
D15*
Y8043D1*
D13*
X9312Y8062D1*
X9293Y7665D2*
D15*
X9915D1*
D13*
X9937Y7687D1*
X9293Y7665D2*
D15*
X8709D1*
D13*
X8687Y7687D1*
X9293Y7665D2*
D15*
Y7269D1*
D13*
X9312Y7250D1*
X9356Y5160D2*
X9355Y5159D1*
D18*
Y5499D1*
Y5897D1*
X9730Y5886D2*
Y5499D1*
Y5147D1*
X7605Y4795D2*
D13*
Y4585D1*
X7691Y4500D1*
X8437D1*
X8606Y4669D1*
Y4960D1*
X8543Y5022D1*
Y5335D1*
X8708Y5499D1*
X9355D1*
X9730D2*
D18*
X9355D1*
X7015Y5897D2*
D13*
X6999D1*
Y6312D1*
X6937Y6375D1*
X6624D1*
Y6562D1*
X6562Y6625D1*
X5374D1*
X5187Y6437D1*
X5687Y4875D2*
X6060Y5248D1*
X6365D1*
X9355Y4647D2*
D14*
X8867D1*
D13*
X8855Y4636D1*
X8856Y4210D2*
D14*
Y4636D1*
X8855D1*
X9355Y4647D2*
X9719D1*
D13*
X9730Y4636D1*
X4812Y5312D2*
X5062D1*
X5499Y4875D1*
X5687D1*
Y6312D2*
X5749D1*
X5874Y6437D1*
X6050D1*
X6113Y6375D1*
X7253Y11897D2*
D15*
X7249D1*
X6710D1*
D13*
X6687Y11875D1*
X7253Y11897D2*
D15*
Y12684D1*
Y10710D2*
Y10687D1*
Y11897D1*
Y10710D2*
X6772D1*
D13*
X6749Y10687D1*
X7253Y10710D2*
D15*
Y10003D1*
X6228Y10397D2*
X6249D1*
X6710D1*
D13*
X6749Y10437D1*
X7249Y11875D2*
D15*
Y11897D1*
Y10687D2*
X7253D1*
X6249Y10375D2*
Y10397D1*
X6365Y5248D2*
D13*
X6751D1*
X6812Y5187D1*
X7861Y5445D2*
X7179D1*
X7124Y5500D1*
X8418Y8728D2*
X8731D1*
X8344Y6772D2*
Y6522D1*
X7861Y5445D2*
X8078D1*
X8344Y5710D1*
Y6522D1*
X4312Y6437D2*
Y6312D1*
X4499Y6125D1*
X5499D1*
X5624Y6000D1*
X5749D1*
X5874Y6125D1*
X6812D1*
Y5904D1*
X6818Y5897D1*
X4499Y4937D2*
X4312D1*
X4187Y5062D1*
Y5562D1*
X4499Y5875D1*
X5374D1*
X5499Y5750D1*
X5874D1*
X5999Y5875D1*
X6132D1*
X6365Y5641D1*
X6621Y5897D2*
X6477D1*
X6374Y6000D1*
X5937D1*
X5812Y5875D1*
X5562D1*
X5437Y6000D1*
X4437D1*
X4062Y5625D1*
Y4937D1*
X4374Y4625D1*
X4999D1*
X5062Y4687D1*
Y4937D1*
X8355Y11897D2*
D15*
Y10710D1*
X9355Y6409D2*
D13*
X9719D1*
X9730Y6397D1*
D18*
X9477D1*
X9374Y6500D1*
Y6812D1*
X9437Y6875D1*
X10124D1*
X10249Y7000D1*
Y8437D1*
X10124Y8562D1*
X9437D1*
X9374Y8625D1*
Y9316D1*
X9293Y9397D1*
D35*
X8856Y5772D3*
Y5147D3*
X8293Y4772D3*
X8106Y4210D3*
X7543Y4209D3*
X7106D3*
X6668D3*
X6231D3*
X5793D3*
X5355D3*
D37*
X4312Y11875D3*
Y11250D3*
Y10625D3*
Y10000D3*
X8999Y11000D3*
X9562Y10625D3*
D35*
X8731Y8728D3*
X7249Y11875D3*
Y10687D3*
X6187Y12500D3*
X5249Y5562D3*
X6249Y10375D3*
X8344Y6522D3*
X6812Y5187D3*
X7437D3*
X7124Y5500D3*
D37*
X6312Y7437D3*
X5937Y7875D3*
D35*
X4812Y5312D3*
X5187Y6437D3*
X4312D3*
X4499Y4937D3*
X5062D3*
X5687Y6312D3*
X9374Y4187D3*
X9999D3*
X4149Y12501D2*
D19*
X5660D1*
X4149Y12252D2*
X5660D1*
X4149Y12004D2*
X5207D1*
X4149Y11755D2*
X5207D1*
X4149Y11506D2*
X5207D1*
X4149Y11258D2*
X5207D1*
X4149Y11009D2*
X5207D1*
X4149Y10760D2*
X5004D1*
X4149Y10512D2*
X5004D1*
X4149Y10263D2*
X5004D1*
X4149Y10014D2*
X5004D1*
X4149Y9766D2*
X5535D1*
X4149Y9517D2*
X4695D1*
X4149Y9268D2*
X4695D1*
X4149Y9019D2*
X4695D1*
X4149Y8771D2*
X4695D1*
X4149Y8522D2*
X4695D1*
X4149Y8273D2*
X4695D1*
X4149Y8025D2*
X4695D1*
X4149Y7776D2*
X4695D1*
X4149Y7527D2*
X4695D1*
X4149Y7279D2*
X4695D1*
X4149Y7030D2*
X4695D1*
X4472Y6781D2*
X5027D1*
X6749D2*
X7308D1*
X7276Y6533D2*
X7523D1*
X7276Y6284D2*
X7523D1*
X5258Y12105D2*
X5687D1*
Y12750D1*
X4124D1*
Y6754D1*
X4195Y6788D1*
X4318Y6807D1*
X4441Y6784D1*
X4498Y6751D1*
X4988Y6750D1*
X5070Y6788D1*
X5193Y6807D1*
X5235Y6799D1*
X5294Y6835D1*
X5374Y6850D1*
X6562D1*
X6675Y6819D1*
X6756Y6749D1*
X7062D1*
X7119Y6736D1*
X7213Y6650D1*
X7248Y6579D1*
X7250Y6214D1*
X7259Y6207D1*
X7292Y6211D1*
X7291Y6280D1*
X7545D1*
X7546Y6573D1*
X7177Y6939D1*
X5684D1*
X5615Y6955D1*
X4720D1*
Y9589D1*
X5562D1*
Y9750D1*
X5623Y9855D1*
X5631Y9907D1*
X5030D1*
Y10888D1*
X5233Y10890D1*
Y12105D1*
X5258D1*
X5605D2*
D14*
Y11772D1*
X5234D2*
X5605D1*
X5234Y11397D2*
X5605D1*
X5234Y11022D2*
X5605D1*
X5480Y10397D2*
Y9908D1*
X5030Y10397D2*
X5480D1*
X5230Y9589D2*
Y6956D1*
X4721Y8272D2*
X5230D1*
X7409Y6210D2*
Y5897D1*
X7212Y6210D2*
Y5897D1*
X8890Y12501D2*
D19*
X10226D1*
X8890Y12252D2*
X10226D1*
X8890Y12004D2*
X10226D1*
X8890Y11755D2*
X10226D1*
X8890Y11506D2*
X10226D1*
X8890Y11258D2*
X10226D1*
X8890Y11009D2*
X10226D1*
X8890Y10760D2*
X10226D1*
X8890Y10512D2*
X10226D1*
X8890Y10263D2*
X10226D1*
X8890Y10014D2*
X10226D1*
X9925Y9766D2*
X10226D1*
X9925Y9517D2*
X10226D1*
X9925Y9268D2*
X10226D1*
X9925Y9019D2*
X10226D1*
X8062Y12624D2*
X8865D1*
Y9983D1*
X8062D1*
Y9937D1*
X8124D1*
X8230Y9876D1*
X8249Y9808D1*
X8685Y9809D1*
Y9868D1*
X9901D1*
Y8927D1*
X9043D1*
X9066Y8871D1*
X9749Y8875D1*
X10250D1*
Y12750D1*
X8062D1*
Y12621D1*
X8355Y12623D2*
D15*
Y11897D1*
X8865D1*
X8355Y10710D2*
Y9984D1*
Y10710D2*
X8865D1*
X8418Y9808D2*
Y9397D1*
X9293Y9868D2*
Y8927D1*
Y9397D2*
X9901D1*
X7616Y9376D2*
D19*
X7847D1*
X7616Y9127D2*
X7847D1*
X7616Y8879D2*
X7847D1*
X7616Y8630D2*
X7847D1*
X7616Y8381D2*
X7847D1*
X7616Y8133D2*
X8660D1*
X7616Y7884D2*
X8660D1*
X7616Y7635D2*
X8660D1*
X7616Y7387D2*
X8660D1*
X7702Y7138D2*
X9969D1*
X8710Y8136D2*
X9901D1*
Y7195D1*
X8685D1*
Y8136D1*
X8710D1*
X6812Y9589D2*
X7591D1*
Y7253D1*
X7688Y7123D1*
X9386Y7125D1*
X9687Y7130D1*
X9995D1*
X9994Y8191D1*
X9249Y8187D1*
X7999D1*
X7894Y8248D1*
X7874Y8312D1*
Y9625D1*
X6812D1*
Y9590D1*
X9293Y8135D2*
D14*
Y7195D1*
X8685Y7665D2*
X9901D1*
X7081Y9589D2*
Y8272D1*
X7590D1*
X10089Y6438D2*
D19*
X10221D1*
X10089Y6190D2*
X10221D1*
X10089Y5941D2*
X10221D1*
X10089Y5692D2*
X10221D1*
X10089Y5444D2*
X10221D1*
X10089Y5195D2*
X10221D1*
X10089Y4946D2*
X10221D1*
X10089Y4698D2*
X10221D1*
X10089Y4449D2*
X10221D1*
X9253Y4200D2*
X10226D1*
X10063Y6617D2*
X10059Y6025D1*
X10063Y5758D1*
X10059Y5513D1*
X10063Y5270D1*
X10059Y4775D1*
X10063Y4758D1*
Y4263D1*
X9398D1*
Y4275D1*
X9228D1*
Y4124D1*
X10250Y4125D1*
Y4871D1*
X10063Y4883D1*
Y4783D1*
X10250Y4875D1*
Y6652D1*
X10175Y6625D1*
X10066Y6620D1*
X9730Y4636D2*
D14*
Y4264D1*
Y4636D2*
X10063D1*
X9355Y4647D2*
Y4276D1*
X8856Y4210D2*
X9227D1*
X6022Y12501D2*
D19*
X6718D1*
X6022Y12252D2*
X6718D1*
X6515Y12004D2*
X6718D1*
X6515Y11755D2*
X6718D1*
X6515Y11506D2*
X6718D1*
X6515Y11258D2*
X6718D1*
X6515Y11009D2*
X6718D1*
X6022Y9766D2*
X6476D1*
X5968Y9517D2*
X6476D1*
X5774Y9268D2*
X6476D1*
X5774Y9019D2*
X6476D1*
X5774Y8771D2*
X6476D1*
X5774Y8522D2*
X6476D1*
X5774Y8273D2*
X6476D1*
X5774Y8025D2*
X6476D1*
X5774Y7776D2*
X6476D1*
X5774Y7527D2*
X6476D1*
X5774Y7279D2*
X6476D1*
X6768Y12624D2*
X7500D1*
X7499Y12750D1*
X5999D1*
Y12105D1*
X6489D1*
Y10887D1*
X6679Y10888D1*
Y9937D1*
X7499D1*
Y9980D1*
X7338Y9983D1*
X6743D1*
Y12624D1*
X6768D1*
X6543Y9907D2*
X5999D1*
X5998Y9621D1*
X5963Y9536D1*
X5747Y9321D1*
X5749Y7375D1*
Y7250D1*
X6499D1*
X6501Y9816D1*
X6514Y9867D1*
X7253Y12623D2*
D14*
Y11897D1*
X6744D2*
X7253D1*
Y10710D2*
Y9984D1*
X6744Y10710D2*
X7253D1*
X6117Y12105D2*
Y11772D1*
X6489D1*
X6117Y11397D2*
X6489D1*
X6117Y11022D2*
X6489D1*
X6228Y10397D2*
Y9908D1*
Y10397D2*
X6679D1*
D23*
X8355Y11897D3*
X7253D3*
X8355Y10710D3*
X7253D3*
D24*
X8418Y9397D3*
Y8728D3*
D25*
X5605Y11772D3*
X6117D3*
X5605Y11397D3*
X6117D3*
X5605Y11022D3*
X6117D3*
D26*
X5480Y10397D3*
X6228D3*
D27*
X9730Y6397D3*
Y5886D3*
Y5147D3*
Y4636D3*
D25*
X6624Y6375D3*
X6113D3*
D27*
X8855Y5147D3*
Y4636D3*
D25*
Y6772D3*
X8344D3*
D29*
X9293Y9397D3*
Y7665D3*
D31*
X5230Y8272D3*
X7081D3*
D27*
X9355Y5897D3*
Y6409D3*
Y4647D3*
Y5159D3*
X8855Y5772D3*
Y6284D3*
D25*
X8856Y4210D3*
X8344D3*
D27*
X5687Y4875D3*
Y5387D3*
D32*
X7605Y5897D3*
X7409D3*
X7212D3*
X7015D3*
X6818D3*
X6621D3*
D33*
X6365Y5641D3*
Y5445D3*
Y5248D3*
Y5051D3*
D32*
X6621Y4795D3*
X6818D3*
X7015D3*
X7212D3*
X7409D3*
X7605D3*
D33*
X7861Y5051D3*
Y5248D3*
Y5445D3*
Y5641D3*
D34*
X7113Y5346D3*
M02*
