G04 DipTrace 2.3.1.0*
%INTopMask.gbr*%
%MOIN*%
%ADD21C,0.06*%
%ADD22C,0.044*%
%ADD41R,0.1122X0.0728*%
%ADD43R,0.0315X0.0177*%
%ADD45R,0.0177X0.0315*%
%ADD47R,0.0709X0.2323*%
%ADD51R,0.0906X0.063*%
%ADD53R,0.0354X0.0433*%
%ADD55R,0.0591X0.0669*%
%ADD57R,0.0433X0.0354*%
%ADD59R,0.0472X0.0512*%
%ADD61R,0.0709X0.1142*%
%FSLAX44Y44*%
G04*
G70*
G90*
G75*
G01*
%LNTopMask*%
%LPD*%
D61*
X8355Y11897D3*
X7253D3*
X8355Y10710D3*
X7253D3*
D59*
X8418Y9397D3*
Y8728D3*
D57*
X5605Y11772D3*
X6117D3*
X5605Y11397D3*
X6117D3*
X5605Y11022D3*
X6117D3*
D55*
X5480Y10397D3*
X6228D3*
D53*
X9730Y6397D3*
Y5886D3*
Y5147D3*
Y4636D3*
D57*
X6624Y6375D3*
X6113D3*
D53*
X8855Y5147D3*
Y4636D3*
D57*
Y6772D3*
X8344D3*
D51*
X9293Y9397D3*
Y7665D3*
D47*
X5230Y8272D3*
X7081D3*
D53*
X9355Y5897D3*
Y6409D3*
Y4647D3*
Y5159D3*
X8855Y5772D3*
Y6284D3*
D57*
X8856Y4210D3*
X8344D3*
D53*
X5687Y4875D3*
Y5387D3*
D45*
X7605Y5897D3*
X7409D3*
X7212D3*
X7015D3*
X6818D3*
X6621D3*
D43*
X6365Y5641D3*
Y5445D3*
Y5248D3*
Y5051D3*
D45*
X6621Y4795D3*
X6818D3*
X7015D3*
X7212D3*
X7409D3*
X7605D3*
D43*
X7861Y5051D3*
Y5248D3*
Y5445D3*
Y5641D3*
D41*
X7113Y5346D3*
D21*
X4312Y11875D3*
Y11250D3*
Y10625D3*
Y10000D3*
X5937Y7874D3*
X6312Y7437D3*
X9000Y11000D3*
X9562Y10625D3*
D22*
X4312Y6437D3*
X4499Y4937D3*
X5062D3*
X5355Y4209D3*
X5793D3*
X6231D3*
X6668D3*
X7106D3*
X7543D3*
M02*
