G04 DipTrace 2.3.1.0*
%INTopPaste.gbr*%
%MOIN*%
%ADD42R,0.0965X0.0571*%
%ADD44R,0.0157X0.002*%
%ADD46R,0.002X0.0157*%
%ADD48R,0.0551X0.2165*%
%ADD52R,0.0748X0.0472*%
%ADD54R,0.0197X0.0276*%
%ADD56R,0.0433X0.0512*%
%ADD58R,0.0276X0.0197*%
%ADD60R,0.0315X0.0354*%
%ADD62R,0.0551X0.0984*%
%FSLAX44Y44*%
G04*
G70*
G90*
G75*
G01*
%LNTopPaste*%
%LPD*%
D62*
X8355Y11897D3*
X7253D3*
X8355Y10710D3*
X7253D3*
D60*
X8418Y9397D3*
Y8728D3*
D58*
X5605Y11772D3*
X6117D3*
X5605Y11397D3*
X6117D3*
X5605Y11022D3*
X6117D3*
D56*
X5480Y10397D3*
X6228D3*
D54*
X9730Y6397D3*
Y5886D3*
Y5147D3*
Y4636D3*
D58*
X6624Y6375D3*
X6113D3*
D54*
X8855Y5147D3*
Y4636D3*
D58*
Y6772D3*
X8344D3*
D52*
X9293Y9397D3*
Y7665D3*
D48*
X5230Y8272D3*
X7081D3*
D54*
X9355Y5897D3*
Y6409D3*
Y4647D3*
Y5159D3*
X8855Y5772D3*
Y6284D3*
D58*
X8856Y4210D3*
X8344D3*
D54*
X5687Y4875D3*
Y5387D3*
D46*
X7605Y5897D3*
X7409D3*
X7212D3*
X7015D3*
X6818D3*
X6621D3*
D44*
X6365Y5641D3*
Y5445D3*
Y5248D3*
Y5051D3*
D46*
X6621Y4795D3*
X6818D3*
X7015D3*
X7212D3*
X7409D3*
X7605D3*
D44*
X7861Y5051D3*
Y5248D3*
Y5445D3*
Y5641D3*
D42*
X7113Y5346D3*
M02*
