G04 DipTrace 2.3.1.0*
%INTopSilk.gbr*%
%MOIN*%
%ADD10C,0.0098*%
%ADD12C,0.003*%
%ADD20C,0.0013*%
%ADD28C,0.0236*%
%FSLAX44Y44*%
G04*
G70*
G90*
G75*
G01*
%LNTopSilk*%
%LPD*%
X7848Y12390D2*
D10*
Y11405D1*
X7922Y12390D2*
Y11405D1*
Y12390D2*
X7686D1*
X7922Y11405D2*
X7686D1*
X7848Y11202D2*
Y10218D1*
X7922Y11202D2*
Y10218D1*
Y11202D2*
X7686D1*
X7922Y10218D2*
X7686D1*
X8261Y9771D2*
X8575D1*
X5271Y11674D2*
Y11871D1*
Y11299D2*
Y11496D1*
Y10924D2*
Y11121D1*
X5067Y10142D2*
Y10653D1*
X9632Y6732D2*
X9829D1*
X9632Y5482D2*
X9829D1*
X6959Y6473D2*
Y6276D1*
X8757Y5482D2*
X8954D1*
X9190Y6871D2*
Y6674D1*
D28*
X9293Y9968D3*
X9805Y9004D2*
D10*
Y8059D1*
X8781Y9004D2*
Y8059D1*
X4581Y6698D2*
X7730D1*
Y9847D1*
X4581D1*
Y6698D1*
X6129Y6134D2*
X8098D1*
Y4559D1*
X6129D1*
Y6134D1*
G36*
X7801Y6096D2*
X8051Y5846D1*
X8113Y6159D1*
X7801Y6096D1*
G37*
X3937Y12937D2*
D20*
X10437D1*
Y3937D1*
X3937D1*
Y12937D1*
X5187Y4000D2*
X7750D1*
X8946Y11587D2*
D12*
X8937Y11606D1*
X8918Y11625D1*
X8899Y11635D1*
X8860D1*
X8841Y11625D1*
X8822Y11606D1*
X8812Y11587D1*
X8803Y11558D1*
Y11510D1*
X8812Y11482D1*
X8822Y11463D1*
X8841Y11444D1*
X8860Y11434D1*
X8899D1*
X8918Y11444D1*
X8937Y11463D1*
X8946Y11482D1*
X9008Y11596D2*
X9027Y11606D1*
X9056Y11635D1*
Y11434D1*
X8966Y10337D2*
X8956Y10356D1*
X8937Y10375D1*
X8918Y10385D1*
X8880D1*
X8861Y10375D1*
X8842Y10356D1*
X8832Y10337D1*
X8822Y10308D1*
Y10260D1*
X8832Y10232D1*
X8842Y10213D1*
X8861Y10194D1*
X8880Y10184D1*
X8918D1*
X8937Y10194D1*
X8956Y10213D1*
X8966Y10232D1*
X9037Y10337D2*
Y10346D1*
X9047Y10366D1*
X9056Y10375D1*
X9075Y10385D1*
X9114D1*
X9133Y10375D1*
X9142Y10366D1*
X9152Y10346D1*
Y10327D1*
X9142Y10308D1*
X9123Y10280D1*
X9028Y10184D1*
X9161D1*
X7978Y8678D2*
X7959Y8668D1*
X7940Y8649D1*
X7930Y8630D1*
Y8592D1*
X7940Y8572D1*
X7959Y8553D1*
X7978Y8544D1*
X8007Y8534D1*
X8055D1*
X8083Y8544D1*
X8103Y8553D1*
X8122Y8572D1*
X8131Y8592D1*
Y8630D1*
X8122Y8649D1*
X8103Y8668D1*
X8083Y8678D1*
X7931Y8759D2*
Y8864D1*
X8007Y8806D1*
Y8835D1*
X8017Y8854D1*
X8026Y8864D1*
X8055Y8873D1*
X8074D1*
X8103Y8864D1*
X8122Y8845D1*
X8131Y8816D1*
Y8787D1*
X8122Y8759D1*
X8112Y8749D1*
X8093Y8739D1*
X4939Y11837D2*
X4930Y11856D1*
X4910Y11875D1*
X4891Y11885D1*
X4853D1*
X4834Y11875D1*
X4815Y11856D1*
X4805Y11837D1*
X4796Y11808D1*
Y11760D1*
X4805Y11732D1*
X4815Y11713D1*
X4834Y11694D1*
X4853Y11684D1*
X4891D1*
X4910Y11694D1*
X4930Y11713D1*
X4939Y11732D1*
X5097Y11684D2*
Y11885D1*
X5001Y11751D1*
X5144D1*
X4944Y11462D2*
X4934Y11481D1*
X4915Y11500D1*
X4896Y11510D1*
X4858D1*
X4839Y11500D1*
X4820Y11481D1*
X4810Y11462D1*
X4800Y11433D1*
Y11385D1*
X4810Y11357D1*
X4820Y11338D1*
X4839Y11319D1*
X4858Y11309D1*
X4896D1*
X4915Y11319D1*
X4934Y11338D1*
X4944Y11357D1*
X5120Y11510D2*
X5025D1*
X5015Y11424D1*
X5025Y11433D1*
X5054Y11443D1*
X5082D1*
X5111Y11433D1*
X5130Y11414D1*
X5140Y11385D1*
Y11366D1*
X5130Y11338D1*
X5111Y11318D1*
X5082Y11309D1*
X5054D1*
X5025Y11318D1*
X5015Y11328D1*
X5006Y11347D1*
X4949Y11087D2*
X4939Y11106D1*
X4920Y11125D1*
X4901Y11135D1*
X4863D1*
X4844Y11125D1*
X4825Y11106D1*
X4815Y11087D1*
X4805Y11058D1*
Y11010D1*
X4815Y10982D1*
X4825Y10963D1*
X4844Y10944D1*
X4863Y10934D1*
X4901D1*
X4920Y10944D1*
X4939Y10963D1*
X4949Y10982D1*
X5125Y11106D2*
X5116Y11125D1*
X5087Y11135D1*
X5068D1*
X5039Y11125D1*
X5020Y11096D1*
X5011Y11049D1*
Y11001D1*
X5020Y10963D1*
X5039Y10943D1*
X5068Y10934D1*
X5078D1*
X5106Y10943D1*
X5125Y10963D1*
X5135Y10991D1*
Y11001D1*
X5125Y11030D1*
X5106Y11049D1*
X5078Y11058D1*
X5068D1*
X5039Y11049D1*
X5020Y11030D1*
X5011Y11001D1*
X4749Y10462D2*
X4740Y10481D1*
X4721Y10500D1*
X4702Y10510D1*
X4663D1*
X4644Y10500D1*
X4625Y10481D1*
X4615Y10462D1*
X4606Y10433D1*
Y10385D1*
X4615Y10357D1*
X4625Y10338D1*
X4644Y10319D1*
X4663Y10309D1*
X4702D1*
X4721Y10319D1*
X4740Y10338D1*
X4749Y10357D1*
X4849Y10309D2*
X4945Y10510D1*
X4811D1*
X10041Y5882D2*
X10022Y5872D1*
X10002Y5853D1*
X9993Y5834D1*
Y5796D1*
X10002Y5776D1*
X10022Y5757D1*
X10041Y5748D1*
X10069Y5738D1*
X10117D1*
X10146Y5748D1*
X10165Y5757D1*
X10184Y5776D1*
X10194Y5796D1*
Y5834D1*
X10184Y5853D1*
X10165Y5872D1*
X10146Y5882D1*
X9993Y5991D2*
X10003Y5963D1*
X10022Y5953D1*
X10041D1*
X10060Y5963D1*
X10070Y5982D1*
X10079Y6020D1*
X10089Y6049D1*
X10108Y6068D1*
X10127Y6077D1*
X10156D1*
X10175Y6068D1*
X10184Y6058D1*
X10194Y6029D1*
Y5991D1*
X10184Y5963D1*
X10175Y5953D1*
X10156Y5943D1*
X10127D1*
X10108Y5953D1*
X10089Y5972D1*
X10079Y6001D1*
X10070Y6039D1*
X10060Y6058D1*
X10041Y6068D1*
X10022D1*
X10003Y6058D1*
X9993Y6029D1*
Y5991D1*
X10041Y4574D2*
X10022Y4564D1*
X10002Y4545D1*
X9993Y4526D1*
Y4488D1*
X10002Y4469D1*
X10022Y4450D1*
X10041Y4440D1*
X10069Y4430D1*
X10117D1*
X10146Y4440D1*
X10165Y4450D1*
X10184Y4469D1*
X10194Y4488D1*
Y4526D1*
X10184Y4545D1*
X10165Y4564D1*
X10146Y4574D1*
X10060Y4760D2*
X10089Y4750D1*
X10108Y4731D1*
X10117Y4703D1*
Y4693D1*
X10108Y4664D1*
X10089Y4645D1*
X10060Y4636D1*
X10050D1*
X10022Y4645D1*
X10003Y4664D1*
X9993Y4693D1*
Y4703D1*
X10003Y4731D1*
X10022Y4750D1*
X10060Y4760D1*
X10108D1*
X10156Y4750D1*
X10184Y4731D1*
X10194Y4703D1*
Y4684D1*
X10184Y4655D1*
X10165Y4645D1*
X5241Y6315D2*
X5232Y6334D1*
X5212Y6353D1*
X5193Y6362D1*
X5155D1*
X5136Y6353D1*
X5117Y6334D1*
X5107Y6315D1*
X5098Y6286D1*
Y6238D1*
X5107Y6209D1*
X5117Y6190D1*
X5136Y6171D1*
X5155Y6161D1*
X5193D1*
X5212Y6171D1*
X5232Y6190D1*
X5241Y6209D1*
X5303Y6324D2*
X5322Y6334D1*
X5351Y6362D1*
Y6161D1*
X5470Y6362D2*
X5441Y6353D1*
X5422Y6324D1*
X5413Y6276D1*
Y6247D1*
X5422Y6200D1*
X5441Y6171D1*
X5470Y6161D1*
X5489D1*
X5518Y6171D1*
X5537Y6200D1*
X5547Y6247D1*
Y6276D1*
X5537Y6324D1*
X5518Y6353D1*
X5489Y6362D1*
X5470D1*
X5537Y6324D2*
X5422Y6200D1*
X8478Y4870D2*
X8459Y4860D1*
X8440Y4841D1*
X8430Y4822D1*
Y4784D1*
X8440Y4764D1*
X8459Y4745D1*
X8478Y4736D1*
X8507Y4726D1*
X8555D1*
X8583Y4736D1*
X8603Y4745D1*
X8622Y4764D1*
X8631Y4784D1*
Y4822D1*
X8622Y4841D1*
X8603Y4860D1*
X8583Y4870D1*
X8469Y4931D2*
X8459Y4951D1*
X8431Y4979D1*
X8631D1*
X8469Y5041D2*
X8459Y5060D1*
X8431Y5089D1*
X8631D1*
X8347Y7150D2*
X8338Y7169D1*
X8319Y7188D1*
X8299Y7197D1*
X8261D1*
X8242Y7188D1*
X8223Y7169D1*
X8213Y7150D1*
X8204Y7121D1*
Y7073D1*
X8213Y7044D1*
X8223Y7025D1*
X8242Y7006D1*
X8261Y6997D1*
X8299D1*
X8319Y7006D1*
X8338Y7025D1*
X8347Y7044D1*
X8409Y7159D2*
X8428Y7169D1*
X8457Y7197D1*
Y6997D1*
X8528Y7149D2*
Y7159D1*
X8538Y7178D1*
X8547Y7188D1*
X8567Y7197D1*
X8605D1*
X8624Y7188D1*
X8633Y7178D1*
X8643Y7159D1*
Y7140D1*
X8633Y7121D1*
X8614Y7092D1*
X8519Y6997D1*
X8653D1*
X9868Y7366D2*
X10069D1*
Y7433D1*
X10059Y7462D1*
X10040Y7481D1*
X10021Y7490D1*
X9993Y7500D1*
X9945D1*
X9916Y7490D1*
X9897Y7481D1*
X9878Y7462D1*
X9868Y7433D1*
Y7366D1*
X9907Y7562D2*
X9897Y7581D1*
X9868Y7610D1*
X10069D1*
X4168Y6947D2*
Y6746D1*
X4283D1*
X4345Y6909D2*
X4364Y6919D1*
X4393Y6947D1*
Y6746D1*
X9401Y6844D2*
Y6930D1*
X9391Y6959D1*
X9382Y6969D1*
X9363Y6978D1*
X9344D1*
X9325Y6969D1*
X9315Y6959D1*
X9305Y6930D1*
Y6844D1*
X9506D1*
X9401Y6911D2*
X9506Y6978D1*
X9344Y7040D2*
X9334Y7059D1*
X9306Y7088D1*
X9506D1*
X9589Y3988D2*
Y4074D1*
X9579Y4103D1*
X9569Y4113D1*
X9550Y4122D1*
X9531D1*
X9512Y4113D1*
X9502Y4103D1*
X9493Y4074D1*
Y3988D1*
X9694D1*
X9589Y4055D2*
X9694Y4122D1*
X9541Y4194D2*
X9531D1*
X9512Y4203D1*
X9503Y4213D1*
X9493Y4232D1*
Y4270D1*
X9503Y4289D1*
X9512Y4299D1*
X9531Y4309D1*
X9550D1*
X9570Y4299D1*
X9598Y4280D1*
X9694Y4184D1*
Y4318D1*
X8526Y5863D2*
Y5949D1*
X8516Y5978D1*
X8507Y5988D1*
X8488Y5997D1*
X8469D1*
X8450Y5988D1*
X8440Y5978D1*
X8430Y5949D1*
Y5863D1*
X8631D1*
X8526Y5930D2*
X8631Y5997D1*
X8431Y6078D2*
Y6183D1*
X8507Y6126D1*
Y6155D1*
X8517Y6174D1*
X8526Y6183D1*
X8555Y6193D1*
X8574D1*
X8603Y6183D1*
X8622Y6164D1*
X8631Y6136D1*
Y6107D1*
X8622Y6078D1*
X8612Y6069D1*
X8593Y6059D1*
X8243Y4476D2*
X8329D1*
X8357Y4486D1*
X8367Y4496D1*
X8377Y4515D1*
Y4534D1*
X8367Y4553D1*
X8357Y4563D1*
X8329Y4572D1*
X8243D1*
Y4371D1*
X8310Y4476D2*
X8377Y4371D1*
X8534D2*
Y4572D1*
X8438Y4438D1*
X8582D1*
X5358Y4966D2*
Y5052D1*
X5348Y5081D1*
X5338Y5090D1*
X5319Y5100D1*
X5300D1*
X5281Y5090D1*
X5271Y5081D1*
X5262Y5052D1*
Y4966D1*
X5463D1*
X5358Y5033D2*
X5463Y5100D1*
X5262Y5276D2*
Y5181D1*
X5348Y5171D1*
X5339Y5181D1*
X5329Y5209D1*
Y5238D1*
X5339Y5267D1*
X5358Y5286D1*
X5386Y5295D1*
X5405D1*
X5434Y5286D1*
X5453Y5267D1*
X5463Y5238D1*
Y5209D1*
X5453Y5181D1*
X5444Y5171D1*
X5425Y5162D1*
X7874Y6409D2*
Y6265D1*
X7884Y6236D1*
X7903Y6217D1*
X7932Y6208D1*
X7951D1*
X7980Y6217D1*
X7999Y6236D1*
X8008Y6265D1*
Y6409D1*
X8070Y6370D2*
X8089Y6380D1*
X8118Y6408D1*
Y6208D1*
X4140Y12806D2*
Y12605D1*
X4336Y12778D2*
X4317Y12797D1*
X4288Y12806D1*
X4250D1*
X4221Y12797D1*
X4202Y12778D1*
Y12759D1*
X4212Y12739D1*
X4221Y12730D1*
X4240Y12720D1*
X4298Y12701D1*
X4317Y12692D1*
X4327Y12682D1*
X4336Y12663D1*
Y12634D1*
X4317Y12615D1*
X4288Y12605D1*
X4250D1*
X4221Y12615D1*
X4202Y12634D1*
X4398Y12806D2*
Y12605D1*
X4513D1*
X4699Y12739D2*
X4689Y12711D1*
X4670Y12691D1*
X4641Y12682D1*
X4632D1*
X4603Y12691D1*
X4584Y12711D1*
X4574Y12739D1*
Y12749D1*
X4584Y12778D1*
X4603Y12797D1*
X4632Y12806D1*
X4641D1*
X4670Y12797D1*
X4689Y12778D1*
X4699Y12739D1*
Y12691D1*
X4689Y12644D1*
X4670Y12615D1*
X4641Y12605D1*
X4622D1*
X4594Y12615D1*
X4584Y12634D1*
X4799Y12605D2*
X4895Y12806D1*
X4761D1*
X5071Y12778D2*
X5062Y12797D1*
X5033Y12806D1*
X5014D1*
X4985Y12797D1*
X4966Y12768D1*
X4956Y12720D1*
Y12672D1*
X4966Y12634D1*
X4985Y12615D1*
X5014Y12605D1*
X5023D1*
X5052Y12615D1*
X5071Y12634D1*
X5081Y12663D1*
Y12672D1*
X5071Y12701D1*
X5052Y12720D1*
X5023Y12730D1*
X5014D1*
X4985Y12720D1*
X4966Y12701D1*
X4956Y12672D1*
X5181Y12605D2*
X5276Y12806D1*
X5142D1*
X5338Y12768D2*
X5357Y12778D1*
X5386Y12806D1*
Y12605D1*
X5601D2*
X5524Y12806D1*
X5448Y12605D1*
X5477Y12672D2*
X5572D1*
X5857Y12806D2*
Y12605D1*
X5919Y12739D2*
Y12605D1*
Y12701D2*
X5948Y12730D1*
X5967Y12739D1*
X5995D1*
X6015Y12730D1*
X6024Y12701D1*
Y12605D1*
X6115Y12806D2*
Y12644D1*
X6124Y12615D1*
X6143Y12605D1*
X6162D1*
X6086Y12739D2*
X6153D1*
X6224Y12682D2*
X6339D1*
Y12701D1*
X6329Y12720D1*
X6320Y12730D1*
X6301Y12739D1*
X6272D1*
X6253Y12730D1*
X6234Y12711D1*
X6224Y12682D1*
Y12663D1*
X6234Y12634D1*
X6253Y12615D1*
X6272Y12605D1*
X6301D1*
X6320Y12615D1*
X6339Y12634D1*
X6401Y12739D2*
Y12605D1*
Y12682D2*
X6410Y12711D1*
X6429Y12730D1*
X6449Y12739D1*
X6477D1*
X6539D2*
Y12538D1*
Y12711D2*
X6558Y12730D1*
X6577Y12739D1*
X6606D1*
X6625Y12730D1*
X6644Y12711D1*
X6654Y12682D1*
Y12663D1*
X6644Y12634D1*
X6625Y12615D1*
X6606Y12605D1*
X6577D1*
X6558Y12615D1*
X6539Y12634D1*
X6764Y12739D2*
X6745Y12730D1*
X6725Y12711D1*
X6716Y12682D1*
Y12663D1*
X6725Y12634D1*
X6745Y12615D1*
X6764Y12605D1*
X6792D1*
X6812Y12615D1*
X6831Y12634D1*
X6840Y12663D1*
Y12682D1*
X6831Y12711D1*
X6812Y12730D1*
X6792Y12739D1*
X6764D1*
X7007Y12711D2*
X6998Y12730D1*
X6969Y12739D1*
X6940D1*
X6912Y12730D1*
X6902Y12711D1*
X6912Y12692D1*
X6931Y12682D1*
X6979Y12672D1*
X6998Y12663D1*
X7007Y12644D1*
Y12634D1*
X6998Y12615D1*
X6969Y12605D1*
X6940D1*
X6912Y12615D1*
X6902Y12634D1*
X7069Y12682D2*
X7184D1*
Y12701D1*
X7174Y12720D1*
X7165Y12730D1*
X7146Y12739D1*
X7117D1*
X7098Y12730D1*
X7079Y12711D1*
X7069Y12682D1*
Y12663D1*
X7079Y12634D1*
X7098Y12615D1*
X7117Y12605D1*
X7146D1*
X7165Y12615D1*
X7184Y12634D1*
X7246Y12739D2*
Y12605D1*
Y12682D2*
X7255Y12711D1*
X7274Y12730D1*
X7294Y12739D1*
X7322D1*
X7578Y12706D2*
X7689D1*
X7955Y12758D2*
Y12768D1*
X7964Y12787D1*
X7974Y12797D1*
X7993Y12806D1*
X8031D1*
X8050Y12797D1*
X8060Y12787D1*
X8070Y12768D1*
Y12749D1*
X8060Y12730D1*
X8041Y12701D1*
X7945Y12605D1*
X8079D1*
X8198Y12806D2*
X8170Y12797D1*
X8150Y12768D1*
X8141Y12720D1*
Y12691D1*
X8150Y12644D1*
X8170Y12615D1*
X8198Y12605D1*
X8217D1*
X8246Y12615D1*
X8265Y12644D1*
X8275Y12691D1*
Y12720D1*
X8265Y12768D1*
X8246Y12797D1*
X8217Y12806D1*
X8198D1*
X8265Y12768D2*
X8150Y12644D1*
X8337Y12768D2*
X8356Y12778D1*
X8385Y12806D1*
Y12605D1*
X8466Y12806D2*
X8571D1*
X8513Y12730D1*
X8542D1*
X8561Y12720D1*
X8571Y12711D1*
X8580Y12682D1*
Y12663D1*
X8571Y12634D1*
X8552Y12615D1*
X8523Y12605D1*
X8494D1*
X8466Y12615D1*
X8456Y12625D1*
X8446Y12644D1*
X8642Y12706D2*
X8753D1*
X8814Y12768D2*
X8834Y12778D1*
X8862Y12806D1*
Y12605D1*
X8924Y12768D2*
X8943Y12778D1*
X8972Y12806D1*
Y12605D1*
X9034Y12706D2*
X9144D1*
X9206Y12768D2*
X9225Y12778D1*
X9254Y12806D1*
Y12605D1*
X9440Y12739D2*
X9431Y12711D1*
X9412Y12691D1*
X9383Y12682D1*
X9373D1*
X9345Y12691D1*
X9326Y12711D1*
X9316Y12739D1*
Y12749D1*
X9326Y12778D1*
X9345Y12797D1*
X9373Y12806D1*
X9383D1*
X9412Y12797D1*
X9431Y12778D1*
X9440Y12739D1*
Y12691D1*
X9431Y12644D1*
X9412Y12615D1*
X9383Y12605D1*
X9364D1*
X9335Y12615D1*
X9326Y12634D1*
X4212Y4715D2*
X4193Y4734D1*
X4164Y4743D1*
X4126D1*
X4097Y4734D1*
X4078Y4715D1*
Y4696D1*
X4088Y4676D1*
X4097Y4667D1*
X4116Y4657D1*
X4174Y4638D1*
X4193Y4629D1*
X4203Y4619D1*
X4212Y4600D1*
Y4571D1*
X4193Y4552D1*
X4164Y4542D1*
X4126D1*
X4097Y4552D1*
X4078Y4571D1*
X4417Y4696D2*
X4408Y4715D1*
X4389Y4734D1*
X4370Y4743D1*
X4331D1*
X4312Y4734D1*
X4293Y4715D1*
X4283Y4696D1*
X4274Y4667D1*
Y4619D1*
X4283Y4590D1*
X4293Y4571D1*
X4312Y4552D1*
X4331Y4542D1*
X4370D1*
X4389Y4552D1*
X4408Y4571D1*
X4417Y4590D1*
X4479Y4743D2*
Y4542D1*
X4594D1*
X5025Y4715D2*
X5006Y4734D1*
X4977Y4743D1*
X4939D1*
X4910Y4734D1*
X4891Y4715D1*
Y4696D1*
X4900Y4676D1*
X4910Y4667D1*
X4929Y4657D1*
X4986Y4638D1*
X5006Y4629D1*
X5015Y4619D1*
X5025Y4600D1*
Y4571D1*
X5006Y4552D1*
X4977Y4542D1*
X4939D1*
X4910Y4552D1*
X4891Y4571D1*
X5086Y4743D2*
Y4542D1*
X5153D1*
X5182Y4552D1*
X5201Y4571D1*
X5211Y4590D1*
X5220Y4619D1*
Y4667D1*
X5211Y4696D1*
X5201Y4715D1*
X5182Y4734D1*
X5153Y4743D1*
X5086D1*
X5435Y4542D2*
X5359Y4743D1*
X5282Y4542D1*
X5311Y4609D2*
X5407D1*
X4141Y6076D2*
X4227D1*
X4255Y6085D1*
X4265Y6095D1*
X4275Y6114D1*
Y6143D1*
X4265Y6162D1*
X4255Y6171D1*
X4227Y6181D1*
X4141D1*
Y5980D1*
X4336Y6181D2*
X4384Y5980D1*
X4432Y6181D1*
X4480Y5980D1*
X4528Y6181D1*
X4743Y5980D2*
Y6181D1*
X4666Y5980D1*
X4590Y6181D1*
Y5980D1*
X4164Y12416D2*
Y12244D1*
X4078Y12330D2*
X4250D1*
X4427Y12431D2*
X4331D1*
X4322Y12345D1*
X4331Y12354D1*
X4360Y12364D1*
X4389D1*
X4417Y12354D1*
X4437Y12335D1*
X4446Y12306D1*
Y12287D1*
X4437Y12259D1*
X4417Y12239D1*
X4389Y12230D1*
X4360D1*
X4331Y12239D1*
X4322Y12249D1*
X4312Y12268D1*
X4508Y12431D2*
X4584Y12230D1*
X4661Y12431D1*
X4837D2*
X4742D1*
X4732Y12345D1*
X4742Y12354D1*
X4771Y12364D1*
X4799D1*
X4828Y12354D1*
X4847Y12335D1*
X4857Y12306D1*
Y12287D1*
X4847Y12259D1*
X4828Y12239D1*
X4799Y12230D1*
X4771D1*
X4742Y12239D1*
X4732Y12249D1*
X4723Y12268D1*
X9352Y11166D2*
Y10994D1*
X9266Y11080D2*
X9438D1*
X9500Y11181D2*
X9576Y10980D1*
X9653Y11181D1*
X9714D2*
Y10980D1*
X9829D1*
X10015Y11181D2*
X9891D1*
Y10980D1*
X10015D1*
X9891Y11085D2*
X9967D1*
X10077Y11181D2*
Y10980D1*
X10144D1*
X10173Y10990D1*
X10192Y11009D1*
X10201Y11028D1*
X10211Y11056D1*
Y11104D1*
X10201Y11133D1*
X10192Y11152D1*
X10173Y11171D1*
X10144Y11181D1*
X10077D1*
X6034Y8321D2*
X6025Y8340D1*
X6005Y8359D1*
X5986Y8368D1*
X5948D1*
X5929Y8359D1*
X5910Y8340D1*
X5900Y8321D1*
X5891Y8292D1*
Y8244D1*
X5900Y8215D1*
X5910Y8196D1*
X5929Y8177D1*
X5948Y8167D1*
X5986D1*
X6005Y8177D1*
X6025Y8196D1*
X6034Y8215D1*
Y8244D1*
X5986D1*
X6230Y8368D2*
Y8167D1*
X6096Y8368D1*
Y8167D1*
X6292Y8368D2*
Y8167D1*
X6359D1*
X6387Y8177D1*
X6407Y8196D1*
X6416Y8215D1*
X6426Y8244D1*
Y8292D1*
X6416Y8321D1*
X6407Y8340D1*
X6387Y8359D1*
X6359Y8368D1*
X6292D1*
X4284Y4258D2*
X4275Y4277D1*
X4255Y4296D1*
X4236Y4306D1*
X4198D1*
X4179Y4296D1*
X4160Y4277D1*
X4150Y4258D1*
X4141Y4229D1*
Y4181D1*
X4150Y4153D1*
X4160Y4134D1*
X4179Y4115D1*
X4198Y4105D1*
X4236D1*
X4255Y4115D1*
X4275Y4134D1*
X4284Y4153D1*
X4346Y4306D2*
Y4105D1*
X4480Y4306D2*
Y4105D1*
X4346Y4210D2*
X4480D1*
X4599Y4306D2*
X4570Y4296D1*
X4551Y4267D1*
X4542Y4220D1*
Y4191D1*
X4551Y4143D1*
X4570Y4114D1*
X4599Y4105D1*
X4618D1*
X4647Y4114D1*
X4666Y4143D1*
X4676Y4191D1*
Y4220D1*
X4666Y4267D1*
X4647Y4296D1*
X4618Y4306D1*
X4599D1*
X4666Y4267D2*
X4551Y4143D1*
X4737Y4205D2*
X4848D1*
X5024Y4306D2*
X4929D1*
X4919Y4220D1*
X4929Y4229D1*
X4958Y4239D1*
X4986D1*
X5015Y4229D1*
X5034Y4210D1*
X5044Y4181D1*
Y4162D1*
X5034Y4134D1*
X5015Y4114D1*
X4986Y4105D1*
X4958D1*
X4929Y4114D1*
X4919Y4124D1*
X4910Y4143D1*
X5172Y4358D2*
X5105D1*
Y4052D1*
X5172D1*
X7766Y4358D2*
X7833D1*
Y4052D1*
X7766D1*
M02*
